<?xml version="1.0" encoding="utf-8"?>
<!-- Generator: Adobe Illustrator 19.2.1, SVG Export Plug-In . SVG Version: 6.00 Build 0)  -->
<svg version="1.1" id="layer" xmlns="http://www.w3.org/2000/svg" xmlns:xlink="http://www.w3.org/1999/xlink" x="0px" y="0px"
	 viewBox="0 0 652 652" style="enable-background:new 0 0 652 652;" xml:space="preserve">
<style type="text/css">
	.st0{fill:#D51920;}
</style>
<path d="M43,409.2h-9.1l-1.7-19.5h9.1L43,409.2z M592.5,409.2h9.1l1.7-19.5h-9.1L592.5,409.2z M26.8,389.7h-9.1l1.7,19.5h9.1
	L26.8,389.7z M606.9,409.2h9.1l1.7-19.5h-9.1L606.9,409.2z M88.9,413.9c0.3,6.8-5,12.5-11.8,12.7c-0.2,0-0.4,0-0.6,0
	c-6.9,0-12.4-5.7-12.4-12.5c0-0.1,0-0.2,0-0.3v-0.1c0-6.9,4.9-12.7,12.3-12.7c6.9,0,12.5,5.6,12.5,12.5c0,0.1,0,0.3,0,0.4
	L88.9,413.9 M50.4,413.9c0,13.7,11.1,24.7,26,24.7s26.2-11.1,26.2-24.8v-0.1c0-13.7-11.1-24.7-26-24.7s-26.2,11.1-26.2,24.8
	L50.4,413.9 M111,437.6h13.4v-17h22.9v-11h-22.9v-8.1h25.4v-11.6H111L111,437.6L111,437.6z M157.7,437.6h13.4v-17h22.9v-11h-23v-8.1
	h25.4v-11.6h-38.8L157.7,437.6L157.7,437.6z M234.4,437.6h13.4v-36.1h14.6V390h-42.6v11.6h14.6L234.4,437.6L234.4,437.6z
	 M271.2,437.6h13.4v-18.1H302v18.1h13.4V390H302v17.8h-17.3v-17.9h-13.4V437.6L271.2,437.6z M324.5,437.6h39.4v-11.2h-26.1v-7.6H361
	v-10.4h-23.3v-7.2h25.7v-11.2h-39L324.5,437.6L324.5,437.6z M400.8,438h11.7l9.7-27.4L432,438h11.7l16.2-48H446l-8.5,27.6l-9.4-27.7
	h-11.6l-9.4,27.7l-8.5-27.6h-14.2L400.8,438z M475.6,418.8l5.5-13.6l5.4,13.6H475.6L475.6,418.8z M454.1,437.6h14.1l3.5-8.5h18.8
	l3.5,8.5h14.4l-20.7-48h-13L454.1,437.6z M514.7,437.6h37V426h-23.5v-36.1h-13.4L514.7,437.6L514.7,437.6z M559.2,437.6h37V426
	h-23.5v-36.1h-13.4L559.2,437.6L559.2,437.6z"/>
<path class="st0" d="M537.9,269.9h-26.1c-2.5-6.4-5.4-11.4-20-11.4c-10.1,0-14.4,4.2-14.4,8.3c0,4.6,3.6,8.4,14.7,10.9l23.6,6.3
	c15.5,4.1,23,16.4,23,29.4c0,7.2-1.6,15.9-8.4,23.1c-5.1,5.3-12.9,12.4-38.5,12.4c-35.3,0-46.9-22.3-46.9-35.8h27.4
	c2.7,9.8,9.5,13.6,22.8,13.6c9.3,0,17.2-3.3,17.2-10.4c0-6.7-5.8-9.3-13.2-11.3l-18.7-5c-9-2.7-16.5-4.9-21.8-9.4
	c-13.9-11.8-12.9-33.1,2.2-44.1c8.4-6.1,17-9.3,30.6-9.3c16,0,25.1,4.6,32.3,9.5c6.4,4.3,14,15,14,23.4 M97.4,194.5
	c0.2,0.9,54.6,153.1,54.6,153.1h32.4l50-126.6h310.5l2.4-26.5H210.6l-41.5,104.9l-37.3-105L97.4,194.5 M365.8,292.8l40.5,54.7h25.4
	V239.3h-29.2v58.8l-36.7-58.8h-28v108.2h28V292.8L365.8,292.8z M548.2,341.9c0-3.2-2.6-5.8-5.8-5.8s-5.8,2.6-5.8,5.8
	c0,3.2,2.6,5.8,5.8,5.8C545.7,347.7,548.3,345.2,548.2,341.9C548.3,341.9,548.3,341.9,548.2,341.9L548.2,341.9z M547.6,341.9
	c0,2.8-2.3,5.1-5.1,5.1c-2.8,0-5.1-2.3-5.1-5.1c0-2.8,2.3-5.1,5.1-5.1c2.8,0,5.1,2.2,5.1,5C547.6,341.8,547.6,341.9,547.6,341.9
	L547.6,341.9z M545.2,340.7c0-1.1-0.9-2.1-2.1-2c-0.1,0-0.2,0-0.3,0h-2.7v6.1h1.4v-2h1.1l1.3,2h1.6l-1.4-2.2
	C544.8,342.3,545.3,341.6,545.2,340.7L545.2,340.7z M543.9,340.8c0,0.5-0.4,0.9-0.9,0.9c-0.1,0-0.1,0-0.2,0h-1.4v-1.8h1.3
	c0.5-0.1,1,0.1,1.1,0.6C543.9,340.6,543.9,340.7,543.9,340.8L543.9,340.8z M211.3,347.5h31.1l5.8-16.9h41.2l6,16.9H326l-39.2-108.2
	h-33L211.3,347.5z M256.9,311l12.1-36l11.9,36H256.9L256.9,311z"/>
</svg>
